<?xml version="1.0" encoding="UTF-8" standalone="no"?><svg xmlns="http://www.w3.org/2000/svg" xmlns:xlink="http://www.w3.org/1999/xlink" contentScriptType="application/ecmascript" contentStyleType="text/css" height="1001px" preserveAspectRatio="none" style="width:654px;height:1001px;" version="1.1" viewBox="0 0 654 1001" width="654px" zoomAndPan="magnify"><defs><filter height="300%" id="f15mmchqd3zn6z" width="300%" x="-1" y="-1"><feGaussianBlur result="blurOut" stdDeviation="2.0"/><feColorMatrix in="blurOut" result="blurOut2" type="matrix" values="0 0 0 0 0 0 0 0 0 0 0 0 0 0 0 0 0 0 .4 0"/><feOffset dx="4.0" dy="4.0" in="blurOut2" result="blurOut3"/><feBlend in="SourceGraphic" in2="blurOut3" mode="normal"/></filter></defs><g><text fill="#000000" font-family="Arial" font-size="10" lengthAdjust="spacingAndGlyphs" textLength="138" x="257" y="9.2822">JamesDSP Processing Chain</text><text fill="#000000" font-family="Arial" font-size="10" lengthAdjust="spacingAndGlyphs" textLength="307" x="172.5" y="20.9229">DSP Processing for Main Speakers with Latency Compensation</text><!--MD5=[4f404de55baf87f510f6f29ca86187cc]
cluster Applications--><polygon fill="#FFFFFF" filter="url(#f15mmchqd3zn6z)" points="187,47.2813,263,47.2813,270,64.9219,595,64.9219,595,189.2813,187,189.2813,187,47.2813" style="stroke: #000000; stroke-width: 1.5;"/><line style="stroke: #000000; stroke-width: 1.5;" x1="187" x2="270" y1="64.9219" y2="64.9219"/><text fill="#000000" font-family="Arial" font-size="10" font-weight="bold" lengthAdjust="spacingAndGlyphs" textLength="70" x="191" y="58.5635">Applications</text><!--MD5=[dc26a7d246808894096dc1a4d54b274d]
cluster DSP Processing Chain--><polygon fill="#FFFFFF" filter="url(#f15mmchqd3zn6z)" points="22,246.2813,148,246.2813,155,263.9219,238,263.9219,238,639.2813,22,639.2813,22,246.2813" style="stroke: #000000; stroke-width: 1.5;"/><line style="stroke: #000000; stroke-width: 1.5;" x1="22" x2="155" y1="263.9219" y2="263.9219"/><text fill="#000000" font-family="Arial" font-size="10" font-weight="bold" lengthAdjust="spacingAndGlyphs" textLength="120" x="26" y="257.5635">DSP Processing Chain</text><!--MD5=[91634d10b24fd254e953f8b771acbc9a]
cluster Hardware Output--><polygon fill="#FFFFFF" filter="url(#f15mmchqd3zn6z)" points="35,696.2813,138,696.2813,145,713.9219,225,713.9219,225,884.2813,35,884.2813,35,696.2813" style="stroke: #000000; stroke-width: 1.5;"/><line style="stroke: #000000; stroke-width: 1.5;" x1="35" x2="145" y1="713.9219" y2="713.9219"/><text fill="#000000" font-family="Arial" font-size="10" font-weight="bold" lengthAdjust="spacingAndGlyphs" textLength="97" x="39" y="707.5635">Hardware Output</text><!--MD5=[7f5acb21d61d3279dce4328422b4764e]
class Firefox--><rect fill="#D5E8D4" filter="url(#f15mmchqd3zn6z)" height="95.8438" id="Firefox" style="stroke: #2E86AB; stroke-width: 1.5;" width="161" x="417.5" y="77.2813"/><ellipse cx="462.25" cy="93.9219" fill="#ADD1B2" rx="9" ry="9" style="stroke: #2E86AB; stroke-width: 1.0;"/><path d="M463.5313,97.2188 Q463.1875,97.3906 462.8125,97.4688 Q462.4375,97.5625 462.0156,97.5625 Q460.5469,97.5625 459.7656,96.5938 Q459,95.625 459,93.7813 Q459,91.9375 459.7656,90.9688 Q460.5469,90 462.0156,90 Q462.4375,90 462.8125,90.0938 Q463.2031,90.1719 463.5313,90.3438 L463.5313,91.9531 Q463.1563,91.6094 462.7969,91.4531 Q462.4531,91.2969 462.0938,91.2969 Q461.2969,91.2969 460.8906,91.9219 Q460.4844,92.5469 460.4844,93.7813 Q460.4844,95.0156 460.8906,95.6406 Q461.2969,96.2656 462.0938,96.2656 Q462.4531,96.2656 462.7969,96.1094 Q463.1563,95.9531 463.5313,95.6094 L463.5313,97.2188 Z "/><text fill="#000000" font-family="Arial" font-size="10" font-style="italic" lengthAdjust="spacingAndGlyphs" textLength="68" x="477.75" y="91.5635">«Application»</text><text fill="#000000" font-family="Arial" font-size="10" lengthAdjust="spacingAndGlyphs" textLength="34" x="494.75" y="103.2041">Firefox</text><line style="stroke: #2E86AB; stroke-width: 1.5;" x1="418.5" x2="577.5" y1="110.5625" y2="110.5625"/><ellipse cx="428.5" cy="121.5625" fill="none" rx="3" ry="3" style="stroke: #038048; stroke-width: 1.0;"/><text fill="#000000" font-family="Arial" font-size="10" lengthAdjust="spacingAndGlyphs" textLength="112" x="435.5" y="123.8447">Sample Rate: 44100Hz</text><ellipse cx="428.5" cy="133.2031" fill="none" rx="3" ry="3" style="stroke: #038048; stroke-width: 1.0;"/><text fill="#000000" font-family="Arial" font-size="10" lengthAdjust="spacingAndGlyphs" textLength="71" x="435.5" y="135.4854">Volume: 100%</text><ellipse cx="428.5" cy="144.8438" fill="none" rx="3" ry="3" style="stroke: #038048; stroke-width: 1.0;"/><text fill="#000000" font-family="Arial" font-size="10" lengthAdjust="spacingAndGlyphs" textLength="63" x="435.5" y="147.126">State: Active</text><ellipse cx="428.5" cy="156.4844" fill="none" rx="3" ry="3" style="stroke: #038048; stroke-width: 1.0;"/><text fill="#000000" font-family="Arial" font-size="10" lengthAdjust="spacingAndGlyphs" textLength="137" x="435.5" y="158.7666">Audio Stream: Firefox Audio</text><line style="stroke: #2E86AB; stroke-width: 1.5;" x1="418.5" x2="577.5" y1="165.125" y2="165.125"/><!--MD5=[e2f38a1ab6624f067b878be571df4f6d]
class Chromium--><rect fill="#D5E8D4" filter="url(#f15mmchqd3zn6z)" height="95.8438" id="Chromium" style="stroke: #2E86AB; stroke-width: 1.5;" width="179" x="203.5" y="77.2813"/><ellipse cx="257.25" cy="93.9219" fill="#ADD1B2" rx="9" ry="9" style="stroke: #2E86AB; stroke-width: 1.0;"/><path d="M258.5313,97.2188 Q258.1875,97.3906 257.8125,97.4688 Q257.4375,97.5625 257.0156,97.5625 Q255.5469,97.5625 254.7656,96.5938 Q254,95.625 254,93.7813 Q254,91.9375 254.7656,90.9688 Q255.5469,90 257.0156,90 Q257.4375,90 257.8125,90.0938 Q258.2031,90.1719 258.5313,90.3438 L258.5313,91.9531 Q258.1563,91.6094 257.7969,91.4531 Q257.4531,91.2969 257.0938,91.2969 Q256.2969,91.2969 255.8906,91.9219 Q255.4844,92.5469 255.4844,93.7813 Q255.4844,95.0156 255.8906,95.6406 Q256.2969,96.2656 257.0938,96.2656 Q257.4531,96.2656 257.7969,96.1094 Q258.1563,95.9531 258.5313,95.6094 L258.5313,97.2188 Z "/><text fill="#000000" font-family="Arial" font-size="10" font-style="italic" lengthAdjust="spacingAndGlyphs" textLength="68" x="272.75" y="91.5635">«Application»</text><text fill="#000000" font-family="Arial" font-size="10" lengthAdjust="spacingAndGlyphs" textLength="52" x="280.75" y="103.2041">Chromium</text><line style="stroke: #2E86AB; stroke-width: 1.5;" x1="204.5" x2="381.5" y1="110.5625" y2="110.5625"/><ellipse cx="214.5" cy="121.5625" fill="none" rx="3" ry="3" style="stroke: #038048; stroke-width: 1.0;"/><text fill="#000000" font-family="Arial" font-size="10" lengthAdjust="spacingAndGlyphs" textLength="112" x="221.5" y="123.8447">Sample Rate: 48000Hz</text><ellipse cx="214.5" cy="133.2031" fill="none" rx="3" ry="3" style="stroke: #038048; stroke-width: 1.0;"/><text fill="#000000" font-family="Arial" font-size="10" lengthAdjust="spacingAndGlyphs" textLength="65" x="221.5" y="135.4854">Volume: 58%</text><ellipse cx="214.5" cy="144.8438" fill="none" rx="3" ry="3" style="stroke: #038048; stroke-width: 1.0;"/><text fill="#000000" font-family="Arial" font-size="10" lengthAdjust="spacingAndGlyphs" textLength="63" x="221.5" y="147.126">State: Active</text><ellipse cx="214.5" cy="156.4844" fill="none" rx="3" ry="3" style="stroke: #038048; stroke-width: 1.0;"/><text fill="#000000" font-family="Arial" font-size="10" lengthAdjust="spacingAndGlyphs" textLength="155" x="221.5" y="158.7666">Audio Stream: Chromium Audio</text><line style="stroke: #2E86AB; stroke-width: 1.5;" x1="204.5" x2="381.5" y1="165.125" y2="165.125"/><!--MD5=[75a060a0898d022e69e76fc42e9453b1]
class JamesDSP_Sink--><rect fill="#FFE6CC" filter="url(#f15mmchqd3zn6z)" height="130.7656" id="JamesDSP_Sink" style="stroke: #2E86AB; stroke-width: 1.5;" width="137" x="82.5" y="276.2813"/><ellipse cx="109.9" cy="292.9219" fill="#ADD1B2" rx="9" ry="9" style="stroke: #2E86AB; stroke-width: 1.0;"/><path d="M111.1813,296.2188 Q110.8375,296.3906 110.4625,296.4688 Q110.0875,296.5625 109.6656,296.5625 Q108.1969,296.5625 107.4156,295.5938 Q106.65,294.625 106.65,292.7813 Q106.65,290.9375 107.4156,289.9688 Q108.1969,289 109.6656,289 Q110.0875,289 110.4625,289.0938 Q110.8531,289.1719 111.1813,289.3438 L111.1813,290.9531 Q110.8063,290.6094 110.4469,290.4531 Q110.1031,290.2969 109.7438,290.2969 Q108.9469,290.2969 108.5406,290.9219 Q108.1344,291.5469 108.1344,292.7813 Q108.1344,294.0156 108.5406,294.6406 Q108.9469,295.2656 109.7438,295.2656 Q110.1031,295.2656 110.4469,295.1094 Q110.8063,294.9531 111.1813,294.6094 L111.1813,296.2188 Z "/><text fill="#000000" font-family="Arial" font-size="10" font-style="italic" lengthAdjust="spacingAndGlyphs" textLength="32" x="147.6" y="290.5635">«DSP»</text><text fill="#000000" font-family="Arial" font-size="10" lengthAdjust="spacingAndGlyphs" textLength="77" x="125.1" y="302.2041">JamesDSP_Sink</text><line style="stroke: #2E86AB; stroke-width: 1.5;" x1="83.5" x2="218.5" y1="309.5625" y2="309.5625"/><ellipse cx="93.5" cy="320.5625" fill="none" rx="3" ry="3" style="stroke: #038048; stroke-width: 1.0;"/><text fill="#000000" font-family="Arial" font-size="10" lengthAdjust="spacingAndGlyphs" textLength="89" x="100.5" y="322.8447">Device ID: 273555</text><ellipse cx="93.5" cy="332.2031" fill="none" rx="3" ry="3" style="stroke: #038048; stroke-width: 1.0;"/><text fill="#000000" font-family="Arial" font-size="10" lengthAdjust="spacingAndGlyphs" textLength="65" x="100.5" y="334.4854">Volume: 30%</text><ellipse cx="93.5" cy="343.8438" fill="none" rx="3" ry="3" style="stroke: #038048; stroke-width: 1.0;"/><text fill="#000000" font-family="Arial" font-size="10" lengthAdjust="spacingAndGlyphs" textLength="112" x="100.5" y="346.126">Sample Rate: 48000Hz</text><ellipse cx="93.5" cy="355.4844" fill="none" rx="3" ry="3" style="stroke: #038048; stroke-width: 1.0;"/><text fill="#000000" font-family="Arial" font-size="10" lengthAdjust="spacingAndGlyphs" textLength="83" x="100.5" y="357.7666">State: RUNNING</text><ellipse cx="93.5" cy="367.125" fill="none" rx="3" ry="3" style="stroke: #038048; stroke-width: 1.0;"/><text fill="#000000" font-family="Arial" font-size="10" lengthAdjust="spacingAndGlyphs" textLength="78" x="100.5" y="369.4072">Driver: PipeWire</text><ellipse cx="93.5" cy="378.7656" fill="none" rx="3" ry="3" style="stroke: #038048; stroke-width: 1.0;"/><text fill="#000000" font-family="Arial" font-size="10" lengthAdjust="spacingAndGlyphs" textLength="113" x="100.5" y="381.0479">DSP Processing: Active</text><ellipse cx="93.5" cy="390.4063" fill="none" rx="3" ry="3" style="stroke: #038048; stroke-width: 1.0;"/><text fill="#000000" font-family="Arial" font-size="10" lengthAdjust="spacingAndGlyphs" textLength="103" x="100.5" y="392.6885">Filter Chains: Multiple</text><line style="stroke: #2E86AB; stroke-width: 1.5;" x1="83.5" x2="218.5" y1="399.0469" y2="399.0469"/><!--MD5=[ceeba7b1a1e7003de7428830d747d737]
class JamesDSP_Delay_Sink--><rect fill="#FFE6CC" filter="url(#f15mmchqd3zn6z)" height="130.7656" id="JamesDSP_Delay_Sink" style="stroke: #2E86AB; stroke-width: 1.5;" width="183" x="38.5" y="492.2813"/><ellipse cx="71.75" cy="508.9219" fill="#ADD1B2" rx="9" ry="9" style="stroke: #2E86AB; stroke-width: 1.0;"/><path d="M73.0313,512.2188 Q72.6875,512.3906 72.3125,512.4688 Q71.9375,512.5625 71.5156,512.5625 Q70.0469,512.5625 69.2656,511.5938 Q68.5,510.625 68.5,508.7813 Q68.5,506.9375 69.2656,505.9688 Q70.0469,505 71.5156,505 Q71.9375,505 72.3125,505.0938 Q72.7031,505.1719 73.0313,505.3438 L73.0313,506.9531 Q72.6563,506.6094 72.2969,506.4531 Q71.9531,506.2969 71.5938,506.2969 Q70.7969,506.2969 70.3906,506.9219 Q69.9844,507.5469 69.9844,508.7813 Q69.9844,510.0156 70.3906,510.6406 Q70.7969,511.2656 71.5938,511.2656 Q71.9531,511.2656 72.2969,511.1094 Q72.6563,510.9531 73.0313,510.6094 L73.0313,512.2188 Z "/><text fill="#000000" font-family="Arial" font-size="10" font-style="italic" lengthAdjust="spacingAndGlyphs" textLength="32" x="127.25" y="506.5635">«DSP»</text><text fill="#000000" font-family="Arial" font-size="10" lengthAdjust="spacingAndGlyphs" textLength="110" x="88.25" y="518.2041">JamesDSP_Delay_Sink</text><line style="stroke: #2E86AB; stroke-width: 1.5;" x1="39.5" x2="220.5" y1="525.5625" y2="525.5625"/><ellipse cx="49.5" cy="536.5625" fill="none" rx="3" ry="3" style="stroke: #038048; stroke-width: 1.0;"/><text fill="#000000" font-family="Arial" font-size="10" lengthAdjust="spacingAndGlyphs" textLength="89" x="56.5" y="538.8447">Device ID: 274119</text><ellipse cx="49.5" cy="548.2031" fill="none" rx="3" ry="3" style="stroke: #038048; stroke-width: 1.0;"/><text fill="#000000" font-family="Arial" font-size="10" lengthAdjust="spacingAndGlyphs" textLength="71" x="56.5" y="550.4854">Volume: 100%</text><ellipse cx="49.5" cy="559.8438" fill="none" rx="3" ry="3" style="stroke: #038048; stroke-width: 1.0;"/><text fill="#000000" font-family="Arial" font-size="10" lengthAdjust="spacingAndGlyphs" textLength="112" x="56.5" y="562.126">Sample Rate: 44100Hz</text><ellipse cx="49.5" cy="571.4844" fill="none" rx="3" ry="3" style="stroke: #038048; stroke-width: 1.0;"/><text fill="#000000" font-family="Arial" font-size="10" lengthAdjust="spacingAndGlyphs" textLength="83" x="56.5" y="573.7666">State: RUNNING</text><ellipse cx="49.5" cy="583.125" fill="none" rx="3" ry="3" style="stroke: #038048; stroke-width: 1.0;"/><text fill="#000000" font-family="Arial" font-size="10" lengthAdjust="spacingAndGlyphs" textLength="78" x="56.5" y="585.4072">Driver: PipeWire</text><ellipse cx="49.5" cy="594.7656" fill="none" rx="3" ry="3" style="stroke: #038048; stroke-width: 1.0;"/><text fill="#000000" font-family="Arial" font-size="10" lengthAdjust="spacingAndGlyphs" textLength="159" x="56.5" y="597.0479">Purpose: Latency Compensation</text><line style="stroke: #2E86AB; stroke-width: 1.5;" x1="39.5" x2="220.5" y1="603.4063" y2="603.4063"/><ellipse cx="49.5" cy="614.4063" fill="#84BE84" rx="3" ry="3" style="stroke: #038048; stroke-width: 1.0;"/><text fill="#000000" font-family="Arial" font-size="10" lengthAdjust="spacingAndGlyphs" textLength="115" x="56.5" y="616.6885">Delay: 2ms (estimated)</text><!--MD5=[25ce919f8bd03c5b14e2ee036ab9c9ff]
class KM_Audio--><rect fill="#E8F4FD" filter="url(#f15mmchqd3zn6z)" height="142.4063" id="KM_Audio" style="stroke: #2E86AB; stroke-width: 1.5;" width="159" x="50.5" y="726.2813"/><ellipse cx="98.25" cy="742.9219" fill="#ADD1B2" rx="9" ry="9" style="stroke: #2E86AB; stroke-width: 1.0;"/><path d="M99.5313,746.2188 Q99.1875,746.3906 98.8125,746.4688 Q98.4375,746.5625 98.0156,746.5625 Q96.5469,746.5625 95.7656,745.5938 Q95,744.625 95,742.7813 Q95,740.9375 95.7656,739.9688 Q96.5469,739 98.0156,739 Q98.4375,739 98.8125,739.0938 Q99.2031,739.1719 99.5313,739.3438 L99.5313,740.9531 Q99.1563,740.6094 98.7969,740.4531 Q98.4531,740.2969 98.0938,740.2969 Q97.2969,740.2969 96.8906,740.9219 Q96.4844,741.5469 96.4844,742.7813 Q96.4844,744.0156 96.8906,744.6406 Q97.2969,745.2656 98.0938,745.2656 Q98.4531,745.2656 98.7969,745.1094 Q99.1563,744.9531 99.5313,744.6094 L99.5313,746.2188 Z "/><text fill="#000000" font-family="Arial" font-size="10" font-style="italic" lengthAdjust="spacingAndGlyphs" textLength="60" x="113.75" y="740.5635">«Hardware»</text><text fill="#000000" font-family="Arial" font-size="10" lengthAdjust="spacingAndGlyphs" textLength="48" x="119.75" y="752.2041">KM_Audio</text><line style="stroke: #2E86AB; stroke-width: 1.5;" x1="51.5" x2="208.5" y1="759.5625" y2="759.5625"/><ellipse cx="61.5" cy="770.5625" fill="none" rx="3" ry="3" style="stroke: #038048; stroke-width: 1.0;"/><text fill="#000000" font-family="Arial" font-size="10" lengthAdjust="spacingAndGlyphs" textLength="65" x="68.5" y="772.8447">Device ID: 69</text><ellipse cx="61.5" cy="782.2031" fill="none" rx="3" ry="3" style="stroke: #038048; stroke-width: 1.0;"/><text fill="#000000" font-family="Arial" font-size="10" lengthAdjust="spacingAndGlyphs" textLength="71" x="68.5" y="784.4854">Volume: 100%</text><ellipse cx="61.5" cy="793.8438" fill="none" rx="3" ry="3" style="stroke: #038048; stroke-width: 1.0;"/><text fill="#000000" font-family="Arial" font-size="10" lengthAdjust="spacingAndGlyphs" textLength="112" x="68.5" y="796.126">Sample Rate: 48000Hz</text><ellipse cx="61.5" cy="805.4844" fill="none" rx="3" ry="3" style="stroke: #038048; stroke-width: 1.0;"/><text fill="#000000" font-family="Arial" font-size="10" lengthAdjust="spacingAndGlyphs" textLength="83" x="68.5" y="807.7666">State: RUNNING</text><ellipse cx="61.5" cy="817.125" fill="none" rx="3" ry="3" style="stroke: #038048; stroke-width: 1.0;"/><text fill="#000000" font-family="Arial" font-size="10" lengthAdjust="spacingAndGlyphs" textLength="78" x="68.5" y="819.4072">Driver: PipeWire</text><ellipse cx="61.5" cy="828.7656" fill="none" rx="3" ry="3" style="stroke: #038048; stroke-width: 1.0;"/><text fill="#000000" font-family="Arial" font-size="10" lengthAdjust="spacingAndGlyphs" textLength="81" x="68.5" y="831.0479">Type: USB Audio</text><ellipse cx="61.5" cy="840.4063" fill="none" rx="3" ry="3" style="stroke: #038048; stroke-width: 1.0;"/><text fill="#000000" font-family="Arial" font-size="10" lengthAdjust="spacingAndGlyphs" textLength="135" x="68.5" y="842.6885">Amplification: External Amp</text><ellipse cx="61.5" cy="852.0469" fill="none" rx="3" ry="3" style="stroke: #038048; stroke-width: 1.0;"/><text fill="#000000" font-family="Arial" font-size="10" lengthAdjust="spacingAndGlyphs" textLength="98" x="68.5" y="854.3291">Role: Main Speakers</text><line style="stroke: #2E86AB; stroke-width: 1.5;" x1="51.5" x2="208.5" y1="860.6875" y2="860.6875"/><path d="M254.5,296.2813 L254.5,337.7813 L219.75,341.7813 L254.5,345.7813 L254.5,387.7656 A0,0 0 0 0 254.5,387.7656 L399.5,387.7656 A0,0 0 0 0 399.5,387.7656 L399.5,306.2813 L389.5,296.2813 L254.5,296.2813 A0,0 0 0 0 254.5,296.2813 " fill="#FBFB77" filter="url(#f15mmchqd3zn6z)" style="stroke: #A80036; stroke-width: 1.0;"/><path d="M389.5,296.2813 L389.5,306.2813 L399.5,306.2813 L389.5,296.2813 " fill="#FBFB77" style="stroke: #A80036; stroke-width: 1.0;"/><text fill="#000000" font-family="Arial" font-size="10" font-weight="bold" lengthAdjust="spacingAndGlyphs" textLength="124" x="260.5" y="310.5635">JamesDSP Processing:</text><text fill="#000000" font-family="Arial" font-size="10" lengthAdjust="spacingAndGlyphs" textLength="116" x="260.5" y="322.2041">- Real-time DSP effects</text><text fill="#000000" font-family="Arial" font-size="10" lengthAdjust="spacingAndGlyphs" textLength="122" x="260.5" y="333.8447">- Sample rate conversion</text><text fill="#000000" font-family="Arial" font-size="10" lengthAdjust="spacingAndGlyphs" textLength="113" x="260.5" y="345.4854">- Filter chain processing</text><text fill="#000000" font-family="Arial" font-size="10" lengthAdjust="spacingAndGlyphs" textLength="113" x="260.5" y="357.126">- Volume management</text><text fill="#000000" font-family="Arial" font-size="10" lengthAdjust="spacingAndGlyphs" textLength="104" x="260.5" y="368.7666">- Audio enhancement</text><text fill="#000000" font-family="Arial" font-size="10" lengthAdjust="spacingAndGlyphs" textLength="119" x="260.5" y="380.4072">- Bass/treble adjustment</text><path d="M256.5,517.7813 L256.5,553.7813 L221.78,557.7813 L256.5,561.7813 L256.5,597.625 A0,0 0 0 0 256.5,597.625 L457.5,597.625 A0,0 0 0 0 457.5,597.625 L457.5,527.7813 L447.5,517.7813 L256.5,517.7813 A0,0 0 0 0 256.5,517.7813 " fill="#FBFB77" filter="url(#f15mmchqd3zn6z)" style="stroke: #A80036; stroke-width: 1.0;"/><path d="M447.5,517.7813 L447.5,527.7813 L457.5,527.7813 L447.5,517.7813 " fill="#FBFB77" style="stroke: #A80036; stroke-width: 1.0;"/><text fill="#000000" font-family="Arial" font-size="10" font-weight="bold" lengthAdjust="spacingAndGlyphs" textLength="133" x="262.5" y="532.0635">Latency Compensation:</text><text fill="#000000" font-family="Arial" font-size="10" lengthAdjust="spacingAndGlyphs" textLength="94" x="262.5" y="543.7041">- 2ms delay applied</text><text fill="#000000" font-family="Arial" font-size="10" lengthAdjust="spacingAndGlyphs" textLength="180" x="262.5" y="555.3447">- Compensates for Bluetooth latency</text><text fill="#000000" font-family="Arial" font-size="10" lengthAdjust="spacingAndGlyphs" textLength="135" x="262.5" y="566.9854">- Syncs with Fosi subwoofer</text><text fill="#000000" font-family="Arial" font-size="10" lengthAdjust="spacingAndGlyphs" textLength="116" x="262.5" y="578.626">- Sample rate: 44100Hz</text><text fill="#000000" font-family="Arial" font-size="10" lengthAdjust="spacingAndGlyphs" textLength="107" x="262.5" y="590.2666">- Buffer management</text><path d="M244.5,757.2813 L244.5,793.2813 L209.56,797.2813 L244.5,801.2813 L244.5,837.125 A0,0 0 0 0 244.5,837.125 L387.5,837.125 A0,0 0 0 0 387.5,837.125 L387.5,767.2813 L377.5,757.2813 L244.5,757.2813 A0,0 0 0 0 244.5,757.2813 " fill="#FBFB77" filter="url(#f15mmchqd3zn6z)" style="stroke: #A80036; stroke-width: 1.0;"/><path d="M377.5,757.2813 L377.5,767.2813 L387.5,767.2813 L377.5,757.2813 " fill="#FBFB77" style="stroke: #A80036; stroke-width: 1.0;"/><text fill="#000000" font-family="Arial" font-size="10" font-weight="bold" lengthAdjust="spacingAndGlyphs" textLength="122" x="250.5" y="771.5635">Main Speaker Output:</text><text fill="#000000" font-family="Arial" font-size="10" lengthAdjust="spacingAndGlyphs" textLength="112" x="250.5" y="783.2041">- External amplification</text><text fill="#000000" font-family="Arial" font-size="10" lengthAdjust="spacingAndGlyphs" textLength="116" x="250.5" y="794.8447">- High volume capability</text><text fill="#000000" font-family="Arial" font-size="10" lengthAdjust="spacingAndGlyphs" textLength="89" x="250.5" y="806.4854">- Clean audio path</text><text fill="#000000" font-family="Arial" font-size="10" lengthAdjust="spacingAndGlyphs" textLength="110" x="250.5" y="818.126">- DSP processed audio</text><text fill="#000000" font-family="Arial" font-size="10" lengthAdjust="spacingAndGlyphs" textLength="115" x="250.5" y="829.7666">- Latency compensated</text><path d="M434.5,301.7813 L434.5,381.625 A0,0 0 0 0 434.5,381.625 L633.5,381.625 A0,0 0 0 0 633.5,381.625 L633.5,311.7813 L623.5,301.7813 L531.44,301.7813 L505.9,173.3513 L523.44,301.7813 L434.5,301.7813 A0,0 0 0 0 434.5,301.7813 " fill="#FBFB77" filter="url(#f15mmchqd3zn6z)" style="stroke: #A80036; stroke-width: 1.0;"/><path d="M623.5,301.7813 L623.5,311.7813 L633.5,311.7813 L623.5,301.7813 " fill="#FBFB77" style="stroke: #A80036; stroke-width: 1.0;"/><text fill="#000000" font-family="Arial" font-size="10" font-weight="bold" lengthAdjust="spacingAndGlyphs" textLength="104" x="440.5" y="316.0635">Application Audio:</text><text fill="#000000" font-family="Arial" font-size="10" lengthAdjust="spacingAndGlyphs" textLength="123" x="440.5" y="327.7041">- Firefox: 44100Hz native</text><text fill="#000000" font-family="Arial" font-size="10" lengthAdjust="spacingAndGlyphs" textLength="141" x="440.5" y="339.3447">- Chromium: 48000Hz native</text><text fill="#000000" font-family="Arial" font-size="10" lengthAdjust="spacingAndGlyphs" textLength="178" x="440.5" y="350.9854">- Both processed through JamesDSP</text><text fill="#000000" font-family="Arial" font-size="10" lengthAdjust="spacingAndGlyphs" textLength="131" x="440.5" y="362.626">- Volume levels maintained</text><text fill="#000000" font-family="Arial" font-size="10" lengthAdjust="spacingAndGlyphs" textLength="108" x="440.5" y="374.2666">- Real-time processing</text><path d="M6,85.2813 L6,165.125 A0,0 0 0 0 6,165.125 L94.74,165.125 L131.67,276.0013 L102.74,165.125 L168,165.125 A0,0 0 0 0 168,165.125 L168,95.2813 L158,85.2813 L6,85.2813 A0,0 0 0 0 6,85.2813 " fill="#FBFB77" filter="url(#f15mmchqd3zn6z)" style="stroke: #A80036; stroke-width: 1.0;"/><path d="M158,85.2813 L158,95.2813 L168,95.2813 L158,85.2813 " fill="#FBFB77" style="stroke: #A80036; stroke-width: 1.0;"/><text fill="#000000" font-family="Arial" font-size="10" font-weight="bold" lengthAdjust="spacingAndGlyphs" textLength="93" x="12" y="99.5635">Technical Specs:</text><text fill="#000000" font-family="Arial" font-size="10" lengthAdjust="spacingAndGlyphs" textLength="127" x="12" y="111.2041">- Input: 44100Hz/48000Hz</text><text fill="#000000" font-family="Arial" font-size="10" lengthAdjust="spacingAndGlyphs" textLength="90" x="12" y="122.8447">- Output: 48000Hz</text><text fill="#000000" font-family="Arial" font-size="10" lengthAdjust="spacingAndGlyphs" textLength="137" x="12" y="134.4854">- Processing: Real-time DSP</text><text fill="#000000" font-family="Arial" font-size="10" lengthAdjust="spacingAndGlyphs" textLength="141" x="12" y="146.126">- Memory: Optimized buffers</text><text fill="#000000" font-family="Arial" font-size="10" lengthAdjust="spacingAndGlyphs" textLength="94" x="12" y="157.7666">- CPU: Low latency</text><!--MD5=[07045acd04494a471f32fc463a212c34]
link Firefox to JamesDSP_Sink--><path d="M446.21,173.3312 C419.03,194.9612 383.96,218.4113 348,230.2813 C324.51,238.0313 259.02,227.0313 237,238.2813 C221.12,246.3913 207.03,258.8613 195.08,272.3412 " fill="none" id="Firefox-&gt;JamesDSP_Sink" style="stroke: #A80036; stroke-width: 1.0;"/><polygon fill="#A80036" points="191.77,276.1713,200.6889,271.9936,195.0463,272.3942,194.6457,266.7516,191.77,276.1713" style="stroke: #A80036; stroke-width: 1.0;"/><text fill="#000000" font-family="Arial" font-size="10" lengthAdjust="spacingAndGlyphs" textLength="67" x="414.5" y="215.5635">Audio Stream</text><text fill="#000000" font-family="Arial" font-size="10" lengthAdjust="spacingAndGlyphs" textLength="100" x="398" y="227.2041">44100Hz → 48000Hz</text><!--MD5=[493e4f841e51ef6d63c89637dc8e7371]
link Chromium to JamesDSP_Sink--><path d="M261.84,173.3513 C242.77,202.1513 218.04,239.5113 196.78,271.6313 " fill="none" id="Chromium-&gt;JamesDSP_Sink" style="stroke: #A80036; stroke-width: 1.0;"/><polygon fill="#A80036" points="193.94,275.9213,202.2522,270.6384,196.7069,271.7566,195.5887,266.2114,193.94,275.9213" style="stroke: #A80036; stroke-width: 1.0;"/><text fill="#000000" font-family="Arial" font-size="10" lengthAdjust="spacingAndGlyphs" textLength="67" x="255.5" y="215.5635">Audio Stream</text><text fill="#000000" font-family="Arial" font-size="10" lengthAdjust="spacingAndGlyphs" textLength="100" x="239" y="227.2041">48000Hz → 48000Hz</text><!--MD5=[07f2ef17b2885c8f26a1e1dadc69578d]
link JamesDSP_Sink to JamesDSP_Delay_Sink--><path d="M144.64,407.5713 C142.18,432.7113 139.34,461.5513 136.83,487.1413 " fill="none" id="JamesDSP_Sink-&gt;JamesDSP_Delay_Sink" style="stroke: #A80036; stroke-width: 1.0;"/><polygon fill="#A80036" points="136.34,492.2113,141.1938,483.6415,136.8248,487.2348,133.2315,482.8658,136.34,492.2113" style="stroke: #A80036; stroke-width: 1.0;"/><text fill="#000000" font-family="Arial" font-size="10" lengthAdjust="spacingAndGlyphs" textLength="80" x="151" y="447.5635">Processed Audio</text><text fill="#000000" font-family="Arial" font-size="10" lengthAdjust="spacingAndGlyphs" textLength="98" x="142" y="459.2041">DSP Effects Applied</text><!--MD5=[cac268a41a3d64e106d7c8f4250bd04a]
link JamesDSP_Delay_Sink to KM_Audio--><path d="M130,623.3612 C130,653.3613 130,689.2213 130,720.4913 " fill="none" id="JamesDSP_Delay_Sink-&gt;KM_Audio" style="stroke: #A80036; stroke-width: 1.0;"/><polygon fill="#A80036" points="130,725.8713,134,716.8713,130,720.8713,126,716.8713,130,725.8713" style="stroke: #A80036; stroke-width: 1.0;"/><text fill="#000000" font-family="Arial" font-size="10" lengthAdjust="spacingAndGlyphs" textLength="70" x="151.5" y="665.5635">Delayed Audio</text><text fill="#000000" font-family="Arial" font-size="10" lengthAdjust="spacingAndGlyphs" textLength="111" x="131" y="677.2041">Latency Compensated</text><rect fill="#DDDDDD" height="72.2031" rx="5" ry="5" style="stroke: #000000; stroke-width: 1.0;" width="151" x="492" y="918.2813"/><text fill="#000000" font-family="Arial" font-size="10" font-weight="bold" lengthAdjust="spacingAndGlyphs" textLength="29" x="501" y="934.5635">Color</text><text fill="#000000" font-family="Arial" font-size="10" font-weight="bold" lengthAdjust="spacingAndGlyphs" textLength="28" x="550" y="934.5635">Type</text><text fill="#000000" font-family="Arial" font-size="10" lengthAdjust="spacingAndGlyphs" textLength="49" x="498" y="946.2041">#D5E8D4</text><text fill="#000000" font-family="Arial" font-size="10" lengthAdjust="spacingAndGlyphs" textLength="52" x="550" y="946.2041">Application</text><text fill="#000000" font-family="Arial" font-size="10" lengthAdjust="spacingAndGlyphs" textLength="48" x="498" y="957.8447">#FFF2CC</text><text fill="#000000" font-family="Arial" font-size="10" lengthAdjust="spacingAndGlyphs" textLength="54" x="550" y="957.8447">Virtual Sink</text><text fill="#000000" font-family="Arial" font-size="10" lengthAdjust="spacingAndGlyphs" textLength="47" x="498" y="969.4854">#E8F4FD</text><text fill="#000000" font-family="Arial" font-size="10" lengthAdjust="spacingAndGlyphs" textLength="84" x="550" y="969.4854">Hardware Device</text><text fill="#000000" font-family="Arial" font-size="10" lengthAdjust="spacingAndGlyphs" textLength="49" x="498" y="981.126">#FFE6CC</text><text fill="#000000" font-family="Arial" font-size="10" lengthAdjust="spacingAndGlyphs" textLength="77" x="550" y="981.126">DSP Processing</text><line style="stroke: #000000; stroke-width: 1.0;" x1="498" x2="637" y1="925.2813" y2="925.2813"/><line style="stroke: #000000; stroke-width: 1.0;" x1="498" x2="637" y1="936.9219" y2="936.9219"/><line style="stroke: #000000; stroke-width: 1.0;" x1="498" x2="637" y1="948.5625" y2="948.5625"/><line style="stroke: #000000; stroke-width: 1.0;" x1="498" x2="637" y1="960.2031" y2="960.2031"/><line style="stroke: #000000; stroke-width: 1.0;" x1="498" x2="637" y1="971.8438" y2="971.8438"/><line style="stroke: #000000; stroke-width: 1.0;" x1="498" x2="637" y1="983.4844" y2="983.4844"/><line style="stroke: #000000; stroke-width: 1.0;" x1="498" x2="498" y1="925.2813" y2="983.4844"/><line style="stroke: #000000; stroke-width: 1.0;" x1="547" x2="547" y1="925.2813" y2="983.4844"/><line style="stroke: #000000; stroke-width: 1.0;" x1="637" x2="637" y1="925.2813" y2="983.4844"/><!--MD5=[f106f91c4dc714986020c33f9d1837ae]
@startuml JamesDSP_Processing_Chain

skinparam backgroundColor #FFFFFF
skinparam defaultFontName Arial
skinparam defaultFontSize 10

skinparam class {
    BackgroundColor<<Application>> #D5E8D4
    BackgroundColor<<Virtual>> #FFF2CC
    BackgroundColor<<Hardware>> #E8F4FD
    BackgroundColor<<DSP>> #FFE6CC
    BorderColor #2E86AB
}

title JamesDSP Processing Chain\nDSP Processing for Main Speakers with Latency Compensation

package "Applications" {
    class Firefox <<Application>> {
        + Sample Rate: 44100Hz
        + Volume: 100%
        + State: Active
        + Audio Stream: Firefox Audio
    }

    class Chromium <<Application>> {
        + Sample Rate: 48000Hz
        + Volume: 58%
        + State: Active
        + Audio Stream: Chromium Audio
    }
}

package "DSP Processing Chain" {
    class JamesDSP_Sink <<DSP>> {
        + Device ID: 273555
        + Volume: 30%
        + Sample Rate: 48000Hz
        + State: RUNNING
        + Driver: PipeWire
        + DSP Processing: Active
        + Filter Chains: Multiple
    }

    class JamesDSP_Delay_Sink <<DSP>> {
        + Device ID: 274119
        + Volume: 100%
        + Sample Rate: 44100Hz
        + State: RUNNING
        + Driver: PipeWire
        + Purpose: Latency Compensation
        + Delay: 2ms (estimated)
    }
}

package "Hardware Output" {
    class KM_Audio <<Hardware>> {
        + Device ID: 69
        + Volume: 100%
        + Sample Rate: 48000Hz
        + State: RUNNING
        + Driver: PipeWire
        + Type: USB Audio
        + Amplification: External Amp
        + Role: Main Speakers
    }
}

Firefox - -> JamesDSP_Sink : "Audio Stream\n44100Hz → 48000Hz"
Chromium - -> JamesDSP_Sink : "Audio Stream\n48000Hz → 48000Hz"

JamesDSP_Sink - -> JamesDSP_Delay_Sink : "Processed Audio\nDSP Effects Applied"
JamesDSP_Delay_Sink - -> KM_Audio : "Delayed Audio\nLatency Compensated"

note right of JamesDSP_Sink
  **JamesDSP Processing:**
  - Real-time DSP effects
  - Sample rate conversion
  - Filter chain processing
  - Volume management
  - Audio enhancement
  - Bass/treble adjustment
end note

note right of JamesDSP_Delay_Sink
  **Latency Compensation:**
  - 2ms delay applied
  - Compensates for Bluetooth latency
  - Syncs with Fosi subwoofer
  - Sample rate: 44100Hz
  - Buffer management
end note

note right of KM_Audio
  **Main Speaker Output:**
  - External amplification
  - High volume capability
  - Clean audio path
  - DSP processed audio
  - Latency compensated
end note

note bottom of Firefox
  **Application Audio:**
  - Firefox: 44100Hz native
  - Chromium: 48000Hz native
  - Both processed through JamesDSP
  - Volume levels maintained
  - Real-time processing
end note

note top of JamesDSP_Sink
  **Technical Specs:**
  - Input: 44100Hz/48000Hz
  - Output: 48000Hz
  - Processing: Real-time DSP
  - Memory: Optimized buffers
  - CPU: Low latency
end note

legend right
  |= Color |= Type |
  |#D5E8D4| Application |
  |#FFF2CC| Virtual Sink |
  |#E8F4FD| Hardware Device |
  |#FFE6CC| DSP Processing |
endlegend

@enduml

PlantUML version 1.2020.02(Sun Mar 01 03:22:07 MST 2020)
(GPL source distribution)
Java Runtime: OpenJDK Runtime Environment
JVM: OpenJDK 64-Bit Server VM
Java Version: 11.0.27+6-post-Ubuntu-0ubuntu122.04
Operating System: Linux
Default Encoding: UTF-8
Language: en
Country: US
--></g></svg>
