<svg id="Layer_1" data-name="Layer 1" xmlns="http://www.w3.org/2000/svg" viewBox="0 0 146.36 139.16">
  <defs>
    <style>
      /* This group contains the snowflake and icons, and it spins everything together */
      .spinning-group {
        transform-origin: 73.18px 69.58px; /* Center of viewBox */
        animation: spin 15s linear infinite;
      }

      @keyframes spin {
        from { transform: rotate(0deg); }
        to { transform: rotate(360deg); }
      }

      .snowflake-path {
        fill: #29b5e8;
        fill-rule: evenodd;
        transform-origin: 73.18px 69.58px; /* Set origin to ensure scaling is centered */
        transform: scale(0.667); /* Apply scale via CSS to keep it centered */
      }

      /* This new group counter-rotates the icon to keep it upright */
      .icon-orienter {
        transform-origin: 73.18px 69.58px;
        animation: counter-spin 15s linear infinite;
      }

      @keyframes counter-spin {
        from { transform: rotate(0deg); }
        to { transform: rotate(-360deg); }
      }

      /* Base styles for the icon path */
      .database-icon-path {
        fill: #29b5e8;
        opacity: 0; /* Start invisible until animation begins */
      }

      /* --- Dedicated Animations for Each Icon --- */
      .db-icon-1 { animation: float-1 3s ease-out infinite; animation-delay: 0s; }
      .db-icon-2 { animation: float-2 3s ease-out infinite; animation-delay: -0.6s; }
      .db-icon-3 { animation: float-3 3s ease-out infinite; animation-delay: -1.2s; }
      .db-icon-4 { animation: float-4 3s ease-out infinite; animation-delay: -1.8s; }
      .db-icon-5 { animation: float-5 3s ease-out infinite; animation-delay: -2.4s; }

      @keyframes float-1 { /* Top-Right */
        0% { transform: translate(94.9px, 47px) scale(0.7); opacity: 1; }
        70% { opacity: 1; }
        100% { transform: translate(125px, 17px) scale(0.7); opacity: 0; }
      }
      @keyframes float-2 { /* Bottom-Right */
        0% { transform: translate(89.7px, 95.5px) scale(0.7); opacity: 1; }
        70% { opacity: 1; }
        100% { transform: translate(119.7px, 125.5px) scale(0.7); opacity: 0; }
      }
      @keyframes float-3 { /* Bottom-Left */
        0% { transform: translate(57.3px, 102px) scale(0.7); opacity: 1; }
        70% { opacity: 1; }
        100% { transform: translate(27.3px, 132px) scale(0.7); opacity: 0; }
      }
      @keyframes float-4 { /* Top-Left */
        0% { transform: translate(57.7px, 20.5px) scale(0.7); opacity: 1; }
        70% { opacity: 1; }
        100% { transform: translate(27.7px, -9.5px) scale(0.7); opacity: 0; }
      }
      @keyframes float-5 { /* Far-Left */
        0% { transform: translate(24.6px, 61.5px) scale(0.7); opacity: 1; }
        70% { opacity: 1; }
        100% { transform: translate(-5.4px, 61.5px) scale(0.7); opacity: 0; }
      }

    </style>
  </defs>

  <g class="spinning-group">
    <path class="snowflake-path" d="M134.81,60.1l-16.47,9.49L134.81,79a8.65,8.65,0,1,1-8.67,15l-29.51-17a8.68,8.68,0,0,1-4.33-7.75,8.48,8.48,0,0,1,.31-2,8.68,8.68,0,0,1,4-5.19l29.51-16.94A8.69,8.69,0,0,1,138,48.31,8.58,8.58,0,0,1,134.81,60.1Zm-15.59,46L89.72,89.13a8.72,8.72,0,0,0-13.06,7.48v33.9a8.69,8.69,0,0,0,17.37,0v-19L110.54,121a8.66,8.66,0,1,0,8.68-15Zm-34-33.16L72.92,85.09a2.44,2.44,0,0,1-1.54,.65H67.77a2.51,2.51,0,0,1-1.54-.65L54,72.9a2.45,2.45,0,0,1-.64-1.52v-3.6A2.5,2.5,0,0,1,54,66.25L66.23,54.06a2.5,2.5,0,0,1,1.54-.64h3.61a2.45,2.45,0,0,1,1.54,.64L85.18,66.25a2.49,2.49,0,0,1,.63,1.53v3.6A2.44,2.44,0,0,1,85.18,72.9Zm-9.8-3.38A2.59,2.59,0,0,0,74.73,68l-3.55-3.51a2.51,2.51,0,0,0-1.54-.64h-.13a2.46,2.46,0,0,0-1.53,.64L64.43,68a2.51,2.51,0,0,0-.63,1.55v.13a2.41,2.41,0,0,0,.63,1.52L68,74.7a2.48,2.48,0,0,0,1.53,.64h.13a2.51,2.51,0,0,0,1.54-.64l3.55-3.53a2.49,2.49,0,0,0,.65-1.52ZM19.93,33.08,49.44,50a8.73,8.73,0,0,0,13.07-7.49V8.64a8.69,8.69,0,0,0-17.37,0v19l-16.53-9.5a8.65,8.65,0,1,0-8.68,15ZM84.69,51.16a8.64,8.64,0,0,0,5-1.13l29.5-17a8.65,8.65,0,1,0-8.68-15L94,27.61v-19a8.69,8.69,0,0,0-17.37,0v33.9A8.66,8.66,0,0,0,84.69,51.16ZM54.48,88a8.58,8.58,0,0,0-5,1.13L19.93,106.06a8.66,8.66,0,1,0,8.68,15l16.53-9.49v19a8.69,8.69,0,0,0,17.37,0V96.61A8.65,8.65,0,0,0,54.48,88Zm-8-15.87a8.61,8.61,0,0,0-4-10L13,45.14A8.69,8.69,0,0,0,1.17,48.31,8.59,8.59,0,0,0,4.35,60.1l16.47,9.49L4.35,79A8.65,8.65,0,1,0,13,94l29.48-17A8.59,8.59,0,0,0,46.47,72.13Z" />

    <g class="icon-orienter">
      <path class="database-icon-path db-icon-1" d="M12,3C7.58,3,4,4.79,4,7v10c0,2.21,3.58,4,8,4s8-1.79,8-4V7C20,4.79,16.42,3,12,3z M12,19c-3.31,0-6-1.34-6-3V7c0-1.66,2.69-3,6-3s6,1.34,6,3v9C18,17.66,15.31,19,12,19z M12,5c-3.31,0-6,1.34-6,3s2.69,3,6,3s6-1.34,6-3S15.31,5,12,5z"/>
    </g>
    <g class="icon-orienter">
      <path class="database-icon-path db-icon-2" d="M12,3C7.58,3,4,4.79,4,7v10c0,2.21,3.58,4,8,4s8-1.79,8-4V7C20,4.79,16.42,3,12,3z M12,19c-3.31,0-6-1.34-6-3V7c0-1.66,2.69-3,6-3s6,1.34,6,3v9C18,17.66,15.31,19,12,19z M12,5c-3.31,0-6,1.34-6,3s2.69,3,6,3s6-1.34,6-3S15.31,5,12,5z"/>
    </g>
    <g class="icon-orienter">
      <path class="database-icon-path db-icon-3" d="M12,3C7.58,3,4,4.79,4,7v10c0,2.21,3.58,4,8,4s8-1.79,8-4V7C20,4.79,16.42,3,12,3z M12,19c-3.31,0-6-1.34-6-3V7c0-1.66,2.69-3,6-3s6,1.34,6,3v9C18,17.66,15.31,19,12,19z M12,5c-3.31,0-6,1.34-6,3s2.69,3,6,3s6-1.34,6-3S15.31,5,12,5z"/>
    </g>
    <g class="icon-orienter">
      <path class="database-icon-path db-icon-4" d="M12,3C7.58,3,4,4.79,4,7v10c0,2.21,3.58,4,8,4s8-1.79,8-4V7C20,4.79,16.42,3,12,3z M12,19c-3.31,0-6-1.34-6-3V7c0-1.66,2.69-3,6-3s6,1.34,6,3v9C18,17.66,15.31,19,12,19z M12,5c-3.31,0-6,1.34-6,3s2.69,3,6,3s6-1.34,6-3S15.31,5,12,5z"/>
    </g>
    <g class="icon-orienter">
      <path class="database-icon-path db-icon-5" d="M12,3C7.58,3,4,4.79,4,7v10c0,2.21,3.58,4,8,4s8-1.79,8-4V7C20,4.79,16.42,3,12,3z M12,19c-3.31,0-6-1.34-6-3V7c0-1.66,2.69-3,6-3s6,1.34,6,3v9C18,17.66,15.31,19,12,19z M12,5c-3.31,0-6,1.34-6,3s2.69,3,6,3s6-1.34,6-3S15.31,5,12,5z"/>
    </g>

  </g>
</svg>
